<?xml version="1.0" standalone="no"?>
<!DOCTYPE svg PUBLIC "-//W3C//DTD SVG 20010904//EN"
 "http://www.w3.org/TR/2001/REC-SVG-20010904/DTD/svg10.dtd">
<svg version="1.0" xmlns="http://www.w3.org/2000/svg"
 width="512.000000pt" height="512.000000pt" viewBox="0 0 512.000000 512.000000"
 preserveAspectRatio="xMidYMid meet">

<g transform="translate(0.000000,512.000000) scale(0.100000,-0.100000)"
fill="rgb(228, 64, 95)" stroke="none">
<path d="M1970 5110 c-353 -15 -763 -46 -1021 -75 -260 -30 -440 -115 -605
-286 -86 -90 -124 -146 -175 -253 -50 -107 -74 -212 -93 -406 -83 -839 -97
-1742 -41 -2570 33 -476 56 -670 92 -784 47 -150 106 -248 217 -365 165 -171
344 -256 605 -286 165 -19 561 -51 831 -67 284 -17 1266 -17 1550 0 485 29
871 64 985 89 173 39 313 119 450 257 164 166 241 332 270 584 111 972 111
2251 0 3223 -22 193 -75 340 -170 474 -50 70 -169 187 -238 234 -76 52 -207
109 -298 130 -121 29 -482 62 -974 91 -237 14 -1138 21 -1385 10z m1469 -978
c340 -90 603 -353 693 -693 22 -83 22 -96 25 -837 4 -819 3 -848 -52 -1004
-104 -297 -356 -527 -667 -610 -81 -22 -97 -22 -836 -25 -819 -4 -848 -3
-1004 52 -299 105 -531 359 -610 671 -23 89 -23 92 -23 874 0 782 0 785 23
874 97 383 412 663 807 719 17 2 374 4 795 3 756 -2 766 -2 849 -24z"/>
<path d="M1785 3824 c-239 -47 -444 -255 -490 -497 -22 -118 -22 -1422 0
-1535 37 -187 170 -361 336 -440 146 -69 114 -67 929 -67 815 0 783 -2 929 67
168 80 296 248 335 440 23 114 24 1420 1 1536 -50 249 -252 451 -498 497 -111
21 -1435 20 -1542 -1z m1691 -253 c22 -10 55 -36 72 -56 125 -152 -22 -376
-210 -321 -122 35 -182 170 -127 283 47 97 165 139 265 94z m-710 -211 c297
-76 527 -312 600 -617 21 -83 23 -264 5 -348 -69 -317 -311 -564 -628 -642
-91 -22 -275 -22 -366 0 -306 75 -537 300 -618 602 -28 103 -30 288 -6 388 66
269 257 490 505 586 67 25 101 34 222 55 50 9 210 -5 286 -24z"/>
<path d="M2494 3060 c-257 -38 -436 -243 -436 -500 0 -283 219 -503 502 -502
284 1 502 218 502 502 0 133 -47 254 -135 349 -101 108 -286 173 -433 151z"/>
</g>
</svg>
