<?xml version="1.0" standalone="no"?>
<!DOCTYPE svg PUBLIC "-//W3C//DTD SVG 20010904//EN"
 "http://www.w3.org/TR/2001/REC-SVG-20010904/DTD/svg10.dtd">
<svg version="1.0" xmlns="http://www.w3.org/2000/svg"
 width="512.000000pt" height="512.000000pt" viewBox="0 0 512.000000 512.000000"
 preserveAspectRatio="xMidYMid meet">

<g transform="translate(0.000000,512.000000) scale(0.100000,-0.100000)"
fill="rgb(255,0,0)" stroke="none">
<path d="M1970 5110 c-353 -15 -763 -46 -1021 -75 -260 -30 -440 -115 -605
-286 -86 -90 -124 -146 -175 -253 -50 -107 -74 -212 -93 -406 -83 -839 -97
-1742 -41 -2570 33 -476 56 -670 92 -784 47 -150 106 -248 217 -365 165 -171
344 -256 605 -286 165 -19 561 -51 831 -67 284 -17 1266 -17 1550 0 485 29
871 64 985 89 173 39 313 119 450 257 164 166 241 332 270 584 111 972 111
2252 0 3223 -22 193 -75 340 -170 474 -50 70 -169 187 -238 234 -76 52 -207
109 -298 130 -121 29 -482 62 -974 91 -237 14 -1138 21 -1385 10z m1010 -1390
c296 -14 579 -37 675 -56 173 -33 343 -149 404 -278 31 -64 57 -201 83 -436
19 -174 16 -642 -5 -823 -28 -231 -52 -350 -83 -407 -41 -76 -139 -162 -237
-209 -120 -58 -186 -69 -647 -103 -222 -16 -984 -16 -1220 0 -255 18 -459 39
-516 53 -144 34 -309 150 -368 259 -31 57 -54 169 -82 405 -26 210 -26 660 0
870 41 340 62 408 159 503 117 114 245 164 480 186 439 42 945 55 1357 36z"/>
<path d="M2180 2560 l0 -611 38 23 c224 134 952 584 952 588 0 4 -747 465
-952 588 l-38 23 0 -611z"/>
</g>
</svg>
